#Comment line ignore any data following # character 
#Hierarchical Translation and Rotation (.htr) file 
[Header]	
#Header keywords are followed by a single value 
FileType HTR		#Single word string
DataType HTRS		#Translation followed by rotation and scale data
FileVersion 1		#integer
NumSegments 84		#integer
NumFrames 2		#integer
DataFrameRate 30		#integer, data frame rate in this file
EulerRotationOrder ZYX
CalibrationUnits mm
RotationUnits Degrees
GlobalAxisofGravity Y
BoneLengthAxis Y
ScaleFactor 1.00
[SegmentNames&Hierarchy]
#CHILD	PARENT
MASTER GLOBAL
root MASTER
chest root
L_mid_tent01 root
R_mid_tent01 root
spine01 root
Bip01_Neck chest
L_humerus chest
R_humerus chest
weapon_bone chest
Bip01_Head Bip01_Neck
eye_left_bone Bip01_Head
eye_right_bone Bip01_Head
L_forearm L_humerus
L_front_hand L_forearm
L_weapon_bone L_forearm
L_front_hand01_01 L_front_hand
L_front_hand02_01 L_front_hand
L_front_hand03_01 L_front_hand
L_front_hand01_02 L_front_hand01_01
L_front_hand02_02 L_front_hand02_01
L_front_hand03_02 L_front_hand03_01
R_forearm R_humerus
R_front_hand R_forearm
R_weapon_bone R_forearm
R_front_hand01_01 R_front_hand
R_front_hand02_01 R_front_hand
R_front_hand03_01 R_front_hand
R_front_hand01_02 R_front_hand01_01
R_front_hand02_02 R_front_hand02_01
R_front_hand03_02 R_front_hand03_01
null_rope01_connect L_mid_tent01
Rope1_Seg01 null_rope01_connect
Rope1_Seg02 Rope1_Seg01
Rope1_Seg03 Rope1_Seg02
Rope1_Seg04 Rope1_Seg03
Rope1_Seg05 Rope1_Seg04
Rope1_Seg06 Rope1_Seg05
Rope1_Seg07 Rope1_Seg06
Rope1_Seg09 Rope1_Seg07
L_mid_hand01 Rope1_Seg09
L_mid_hand02 Rope1_Seg09
L_mid_hand03 Rope1_Seg09
null_rope02_connect R_mid_tent01
Rope2_Seg01 null_rope02_connect
Rope2_Seg02 Rope2_Seg01
Rope2_Seg03 Rope2_Seg02
Rope2_Seg04 Rope2_Seg03
Rope2_Seg05 Rope2_Seg04
Rope2_Seg06 Rope2_Seg05
Rope2_Seg07 Rope2_Seg06
Rope2_Seg09 Rope2_Seg07
R_mid_hand01 Rope2_Seg09
R_mid_hand02 Rope2_Seg09
R_mid_hand03 Rope2_Seg09
spine02 spine01
spine03 spine02
pelvis spine03
null_rope03_connect pelvis
null_rope04_connect pelvis
Rope3_Seg01 null_rope03_connect
Rope3_Seg02 Rope3_Seg01
Rope3_Seg03 Rope3_Seg02
Rope3_Seg04 Rope3_Seg03
Rope3_Seg05 Rope3_Seg04
Rope3_Seg06 Rope3_Seg05
Rope3_Seg07 Rope3_Seg06
Rope3_Seg08 Rope3_Seg07
Rope3_Seg09 Rope3_Seg08
R_rear_hand01 Rope3_Seg09
R_rear_hand02 Rope3_Seg09
R_rear_hand03 Rope3_Seg09
Rope4_Seg01 null_rope04_connect
Rope4_Seg02 Rope4_Seg01
Rope4_Seg03 Rope4_Seg02
Rope4_Seg04 Rope4_Seg03
Rope4_Seg05 Rope4_Seg04
Rope4_Seg06 Rope4_Seg05
Rope4_Seg07 Rope4_Seg06
Rope4_Seg08 Rope4_Seg07
Rope4_Seg09 Rope4_Seg08
L_rear_hand01 Rope4_Seg09
L_rear_hand02 Rope4_Seg09
L_rear_hand03 Rope4_Seg09
[BasePosition]
#SegmentName Tx, Ty, Tz, Rx, Ry, Rz, BoneLength
MASTER 0.000000 0.000000 0.000000 -90.000000 0.000000 0.000000 10.000000 
root 0.000000 0.000000 0.000000 0.000000 0.000000 0.000000 10.000000 
chest 0.000000 0.000000 0.000000 0.000000 0.000000 0.000000 10.000000 
L_mid_tent01 0.000000 0.000000 0.000000 0.000000 0.000000 0.000000 10.000000 
R_mid_tent01 0.000000 0.000000 0.000000 0.000000 0.000000 0.000000 10.000000 
spine01 0.000000 0.000000 0.000000 0.000000 0.000000 0.000000 10.000000 
Bip01_Neck 0.000000 0.000000 0.000000 0.000000 0.000000 0.000000 10.000000 
L_humerus 0.000000 0.000000 0.000000 0.000000 0.000000 0.000000 10.000000 
R_humerus 0.000000 0.000000 0.000000 0.000000 0.000000 0.000000 10.000000 
weapon_bone 0.000000 0.000000 0.000000 0.000000 0.000000 0.000000 10.000000 
Bip01_Head 0.000000 0.000000 0.000000 0.000000 0.000000 0.000000 10.000000 
eye_left_bone 0.000000 0.000000 0.000000 0.000000 0.000000 0.000000 10.000000 
eye_right_bone 0.000000 0.000000 0.000000 0.000000 0.000000 0.000000 10.000000 
L_forearm 0.000000 0.000000 0.000000 0.000000 0.000000 0.000000 10.000000 
L_front_hand 0.000000 0.000000 0.000000 0.000000 0.000000 0.000000 10.000000 
L_weapon_bone 0.000000 0.000000 0.000000 0.000000 0.000000 0.000000 10.000000 
L_front_hand01_01 0.000000 0.000000 0.000000 0.000000 0.000000 0.000000 10.000000 
L_front_hand02_01 0.000000 0.000000 0.000000 0.000000 0.000000 0.000000 10.000000 
L_front_hand03_01 0.000000 0.000000 0.000000 0.000000 0.000000 0.000000 10.000000 
L_front_hand01_02 0.000000 0.000000 0.000000 0.000000 0.000000 0.000000 10.000000 
L_front_hand02_02 0.000000 0.000000 0.000000 0.000000 0.000000 0.000000 10.000000 
L_front_hand03_02 0.000000 0.000000 0.000000 0.000000 0.000000 0.000000 10.000000 
R_forearm 0.000000 0.000000 0.000000 0.000000 0.000000 0.000000 10.000000 
R_front_hand 0.000000 0.000000 0.000000 0.000000 0.000000 0.000000 10.000000 
R_weapon_bone 0.000000 0.000000 0.000000 0.000000 0.000000 0.000000 10.000000 
R_front_hand01_01 0.000000 0.000000 0.000000 0.000000 0.000000 0.000000 10.000000 
R_front_hand02_01 0.000000 0.000000 0.000000 0.000000 0.000000 0.000000 10.000000 
R_front_hand03_01 0.000000 0.000000 0.000000 0.000000 0.000000 0.000000 10.000000 
R_front_hand01_02 0.000000 0.000000 0.000000 0.000000 0.000000 0.000000 10.000000 
R_front_hand02_02 0.000000 0.000000 0.000000 0.000000 0.000000 0.000000 10.000000 
R_front_hand03_02 0.000000 0.000000 0.000000 0.000000 0.000000 0.000000 10.000000 
null_rope01_connect 0.000000 0.000000 0.000000 0.000000 0.000000 0.000000 10.000000 
Rope1_Seg01 0.000000 0.000000 0.000000 0.000000 0.000000 0.000000 10.000000 
Rope1_Seg02 0.000000 0.000000 0.000000 0.000000 0.000000 0.000000 10.000000 
Rope1_Seg03 0.000000 0.000000 0.000000 0.000000 0.000000 0.000000 10.000000 
Rope1_Seg04 0.000000 0.000000 0.000000 0.000000 0.000000 0.000000 10.000000 
Rope1_Seg05 0.000000 0.000000 0.000000 0.000000 0.000000 0.000000 10.000000 
Rope1_Seg06 0.000000 0.000000 0.000000 0.000000 0.000000 0.000000 10.000000 
Rope1_Seg07 0.000000 0.000000 0.000000 0.000000 0.000000 0.000000 10.000000 
Rope1_Seg09 0.000000 0.000000 0.000000 0.000000 0.000000 0.000000 10.000000 
L_mid_hand01 0.000000 0.000000 0.000000 0.000000 0.000000 0.000000 10.000000 
L_mid_hand02 0.000000 0.000000 0.000000 0.000000 0.000000 0.000000 10.000000 
L_mid_hand03 0.000000 0.000000 0.000000 0.000000 0.000000 0.000000 10.000000 
null_rope02_connect 0.000000 0.000000 0.000000 0.000000 0.000000 0.000000 10.000000 
Rope2_Seg01 0.000000 0.000000 0.000000 0.000000 0.000000 0.000000 10.000000 
Rope2_Seg02 0.000000 0.000000 0.000000 0.000000 0.000000 0.000000 10.000000 
Rope2_Seg03 0.000000 0.000000 0.000000 0.000000 0.000000 0.000000 10.000000 
Rope2_Seg04 0.000000 0.000000 0.000000 0.000000 0.000000 0.000000 10.000000 
Rope2_Seg05 0.000000 0.000000 0.000000 0.000000 0.000000 0.000000 10.000000 
Rope2_Seg06 0.000000 0.000000 0.000000 0.000000 0.000000 0.000000 10.000000 
Rope2_Seg07 0.000000 0.000000 0.000000 0.000000 0.000000 0.000000 10.000000 
Rope2_Seg09 0.000000 0.000000 0.000000 0.000000 0.000000 0.000000 10.000000 
R_mid_hand01 0.000000 0.000000 0.000000 0.000000 0.000000 0.000000 10.000000 
R_mid_hand02 0.000000 0.000000 0.000000 0.000000 0.000000 0.000000 10.000000 
R_mid_hand03 0.000000 0.000000 0.000000 0.000000 0.000000 0.000000 10.000000 
spine02 0.000000 0.000000 0.000000 0.000000 0.000000 0.000000 10.000000 
spine03 0.000000 0.000000 0.000000 0.000000 0.000000 0.000000 10.000000 
pelvis 0.000000 0.000000 0.000000 0.000000 0.000000 0.000000 10.000000 
null_rope03_connect 0.000000 0.000000 0.000000 0.000000 0.000000 0.000000 10.000000 
null_rope04_connect 0.000000 0.000000 0.000000 0.000000 0.000000 0.000000 10.000000 
Rope3_Seg01 0.000000 0.000000 0.000000 0.000000 0.000000 0.000000 10.000000 
Rope3_Seg02 0.000000 0.000000 0.000000 0.000000 0.000000 0.000000 10.000000 
Rope3_Seg03 0.000000 0.000000 0.000000 0.000000 0.000000 0.000000 10.000000 
Rope3_Seg04 0.000000 0.000000 0.000000 0.000000 0.000000 0.000000 10.000000 
Rope3_Seg05 0.000000 0.000000 0.000000 0.000000 0.000000 0.000000 10.000000 
Rope3_Seg06 0.000000 0.000000 0.000000 0.000000 0.000000 0.000000 10.000000 
Rope3_Seg07 0.000000 0.000000 0.000000 0.000000 0.000000 0.000000 10.000000 
Rope3_Seg08 0.000000 0.000000 0.000000 0.000000 0.000000 0.000000 10.000000 
Rope3_Seg09 0.000000 0.000000 0.000000 0.000000 0.000000 0.000000 10.000000 
R_rear_hand01 0.000000 0.000000 0.000000 0.000000 0.000000 0.000000 10.000000 
R_rear_hand02 0.000000 0.000000 0.000000 0.000000 0.000000 0.000000 10.000000 
R_rear_hand03 0.000000 0.000000 0.000000 0.000000 0.000000 0.000000 10.000000 
Rope4_Seg01 0.000000 0.000000 0.000000 0.000000 0.000000 0.000000 10.000000 
Rope4_Seg02 0.000000 0.000000 0.000000 0.000000 0.000000 0.000000 10.000000 
Rope4_Seg03 0.000000 0.000000 0.000000 0.000000 0.000000 0.000000 10.000000 
Rope4_Seg04 0.000000 0.000000 0.000000 0.000000 0.000000 0.000000 10.000000 
Rope4_Seg05 0.000000 0.000000 0.000000 0.000000 0.000000 0.000000 10.000000 
Rope4_Seg06 0.000000 0.000000 0.000000 0.000000 0.000000 0.000000 10.000000 
Rope4_Seg07 0.000000 0.000000 0.000000 0.000000 0.000000 0.000000 10.000000 
Rope4_Seg08 0.000000 0.000000 0.000000 0.000000 0.000000 0.000000 10.000000 
Rope4_Seg09 0.000000 0.000000 0.000000 0.000000 0.000000 0.000000 10.000000 
L_rear_hand01 0.000000 0.000000 0.000000 0.000000 0.000000 0.000000 10.000000 
L_rear_hand02 0.000000 0.000000 0.000000 0.000000 0.000000 0.000000 10.000000 
L_rear_hand03 0.000000 0.000000 0.000000 0.000000 0.000000 0.000000 10.000000 
#Beginning of Data. Separated by tabs
#Fr	Tx	Ty	Tz	Rx	Ry	Rz	SF
[MASTER]
17 0.000003 0.000049 3521.917725 0.001660 0.001660 0.001660 3521.917725
18 0.000003 0.000043 3734.871582 0.001660 0.001660 0.001660 3734.871582
[root]
17 -16.502302 -9.933393 1457.533447 -61.770279 -7.612130 -101.833412 1457.660767
18 -16.502302 -11.213893 1458.474487 -63.303238 -7.996106 -101.279724 1458.610962
[chest]
17 -84.512650 -34.090519 0.000000 1.582667 -0.110600 152.291275 91.129311
18 -84.512650 -34.090519 0.000000 1.413607 -0.251588 149.464172 91.129311
[L_mid_tent01]
17 27.299078 22.179052 -249.918686 2.840370 16.952499 80.395065 252.381653
18 27.299076 22.179049 -249.918686 1.792590 21.006674 79.241516 252.381653
[R_mid_tent01]
17 23.228794 24.509907 226.238495 157.927261 -40.790516 90.488297 228.744751
18 23.228794 24.509907 226.238495 163.035629 -24.490139 81.892929 228.744751
[spine01]
17 -0.361383 -0.195265 0.000000 0.002062 0.001122 32.879829 0.410763
18 -0.361383 -0.195265 0.000000 0.002062 0.001122 32.879829 0.410763
[Bip01_Neck]
17 165.484543 71.581718 0.000119 176.643677 -1.657967 43.431911 180.302734
18 165.484543 71.581718 0.000119 176.643677 -1.657967 43.431911 180.302734
[L_humerus]
17 -13.983130 -135.272980 -120.471481 159.325684 28.835974 -66.718529 181.680161
18 -13.983130 -135.272980 -120.471481 156.982727 34.731602 -68.411644 181.680161
[R_humerus]
17 -13.983309 -135.273102 125.287651 -176.246658 -8.728106 -87.967201 184.909012
18 -13.983309 -135.273102 125.287651 -175.782043 -7.882727 -89.234604 184.909012
[weapon_bone]
17 235.964890 -300.705902 0.000000 0.000000 -89.951546 -128.212341 382.234833
18 235.964890 -300.705902 0.000000 0.000000 -89.951546 -128.212341 382.234833
[Bip01_Head]
17 213.673859 185.076599 20.027618 31.273617 2.797640 -43.902241 283.391876
18 213.664017 185.103439 19.678185 31.521023 1.980057 -43.898716 283.377533
[eye_left_bone]
17 -24.626970 125.451866 -64.772606 0.000000 -90.000000 -99.840431 143.318359
18 -24.626970 125.451866 -64.772606 0.000000 -90.000000 -99.840431 143.318359
[eye_right_bone]
17 -24.626970 125.451866 64.327362 0.000000 -89.965736 80.156380 143.117676
18 -24.626970 125.451866 64.327362 0.000000 -89.965736 80.156380 143.117676
[L_forearm]
17 322.776093 0.000000 -0.000119 0.000119 -0.002344 -95.807457 322.776093
18 322.776093 0.000000 -0.000119 0.000119 -0.002344 -95.807457 322.776093
[L_front_hand]
17 241.149185 -0.042021 -3.300071 -178.667953 -1.835447 -27.422342 241.171753
18 241.149185 -0.042021 -3.300071 -178.667953 -1.835447 -27.422350 241.171753
[L_weapon_bone]
17 156.183838 0.000000 0.000000 0.000014 0.000007 0.000001 156.183838
18 156.183838 0.000000 0.000000 0.000014 0.000007 0.000001 156.183838
[L_front_hand01_01]
17 86.095154 20.947098 -0.655860 -0.366594 -0.477154 75.385574 88.609184
18 86.095154 20.947098 -0.655860 -0.366594 -0.477154 75.385574 88.609184
[L_front_hand02_01]
17 86.935165 -11.437475 24.513514 154.399796 -59.883835 -61.369587 91.046425
18 86.935165 -11.437475 24.513514 154.399796 -59.883835 -61.369587 91.046425
[L_front_hand03_01]
17 86.637497 -14.123976 -20.424902 -153.913849 58.118122 -62.702866 90.126129
18 86.637497 -14.123976 -20.424902 -153.913849 58.118122 -62.702866 90.126129
[L_front_hand01_02]
17 71.020905 -0.000179 0.000030 0.000334 -0.002323 -106.379684 71.020905
18 71.020905 -0.000179 0.000030 0.000334 -0.002323 -106.379684 71.020905
[L_front_hand02_02]
17 71.020927 -0.000119 0.000060 0.000334 -0.002323 -106.379684 71.020927
18 71.020927 -0.000119 0.000060 0.000334 -0.002323 -106.379684 71.020927
[L_front_hand03_02]
17 71.020905 -0.000060 0.000060 0.000334 -0.002323 -106.379684 71.020905
18 71.020905 -0.000060 0.000060 0.000334 -0.002323 -106.379684 71.020905
[R_forearm]
17 322.776428 -0.000060 0.000030 0.209504 0.012586 -94.339050 322.776428
18 322.776428 -0.000060 0.000030 0.209504 0.012586 -94.339050 322.776428
[R_front_hand]
17 238.847015 -0.006795 2.210259 -2.635298 -10.645461 -26.312506 238.857239
18 238.847015 -0.006795 2.210259 -2.635298 -10.645461 -26.312506 238.857239
[R_weapon_bone]
17 155.664093 0.002503 -0.000030 0.003487 0.001180 -90.988930 155.664078
18 155.664093 0.002503 -0.000030 0.003487 0.001180 -90.988930 155.664078
[R_front_hand01_01]
17 87.624611 14.231146 22.918642 -154.633514 -59.950634 61.746063 91.683487
18 87.624611 14.231146 22.918642 -154.633499 -59.950619 61.746044 91.683487
[R_front_hand02_01]
17 89.356956 14.367283 -19.491137 154.602661 58.302849 63.744389 92.579636
18 89.356956 14.367283 -19.491137 154.602661 58.302849 63.744389 92.579636
[R_front_hand03_01]
17 87.286232 -22.307278 -0.143439 0.162155 -0.423168 -75.767921 90.091743
18 87.286232 -22.307278 -0.143439 0.162155 -0.423168 -75.767921 90.091743
[R_front_hand01_02]
17 71.020905 0.000060 0.000119 0.002323 -0.000334 106.381714 71.020905
18 71.020905 0.000060 0.000119 0.002323 -0.000334 106.381714 71.020905
[R_front_hand02_02]
17 71.020844 -0.000030 -0.000119 0.002323 -0.000334 106.381714 71.020836
18 71.020844 -0.000030 -0.000119 0.002323 -0.000334 106.381714 71.020836
[R_front_hand03_02]
17 71.020905 0.000000 0.000030 0.002323 -0.000334 106.381714 71.020905
18 71.020905 0.000000 0.000030 0.002323 -0.000334 106.381714 71.020905
[null_rope01_connect]
17 328.732483 0.000000 -0.000238 -50.910122 -69.840897 68.474556 328.732483
18 328.732483 0.000000 -0.000238 -65.868645 -72.573753 84.337669 328.732483
[Rope1_Seg01]
17 0.000024 -0.000052 0.000222 -45.127213 63.914246 133.315948 0.000229
18 0.000023 -0.000053 0.000236 -35.441624 61.252659 142.765244 0.000243
[Rope1_Seg02]
17 139.999863 -0.000179 0.000000 -5.187008 13.830667 -8.088631 139.999863
18 139.999863 -0.000179 0.000000 -4.184212 13.974369 -9.650323 139.999863
[Rope1_Seg03]
17 139.999924 0.000060 -0.000060 -6.965537 11.675554 -6.356637 139.999924
18 139.999924 0.000060 -0.000060 -6.458801 13.013639 -8.599198 139.999924
[Rope1_Seg04]
17 139.999924 -0.000060 -0.000119 -6.799821 7.586456 -3.503686 139.999924
18 139.999924 -0.000060 -0.000119 -6.649474 8.451176 -4.922306 139.999924
[Rope1_Seg05]
17 139.999832 0.000119 -0.000060 -56.079243 22.325914 -2.586259 139.999832
18 139.999832 0.000119 -0.000060 -61.131191 21.582556 -5.499665 139.999832
[Rope1_Seg06]
17 139.999954 0.000119 -0.000060 -46.899448 17.800947 23.206715 139.999954
18 139.999954 0.000119 -0.000060 -54.346359 19.561024 23.293968 139.999954
[Rope1_Seg07]
17 139.999985 0.000060 0.000000 -6.890940 -2.233651 12.155658 139.999985
18 139.999985 0.000060 0.000000 -6.490724 -3.513242 12.689934 139.999985
[Rope1_Seg09]
17 121.602913 0.000119 -0.000089 -89.793175 -1.359789 0.847147 121.602913
18 121.602913 0.000119 -0.000089 -89.793175 -1.359789 0.847147 121.602913
[L_mid_hand01]
17 103.859421 1.038730 8.195221 130.544373 -67.584534 -38.866943 104.187431
18 103.859421 1.038730 8.195221 130.544373 -67.584534 -38.866943 104.187431
[L_mid_hand02]
17 105.572853 -4.139662 -10.864139 -168.923172 43.409309 -73.498886 106.211075
18 105.572853 -4.139662 -10.864139 -168.923172 43.409309 -73.498886 106.211075
[L_mid_hand03]
17 104.641464 17.579376 -3.913581 -6.012627 17.808174 74.893669 106.179977
18 104.641464 17.579376 -3.913581 -6.012627 17.808174 74.893669 106.179977
[null_rope02_connect]
17 328.732849 0.000179 -0.000119 -153.507721 24.973101 -2.790282 328.732849
18 328.732849 0.000179 -0.000119 -154.519150 43.929371 -3.995239 328.732849
[Rope2_Seg01]
17 -0.000007 0.000105 0.000000 41.468491 51.008511 -25.302120 0.000105
18 -0.000012 0.000104 0.000000 69.968002 18.113377 -6.407984 0.000105
[Rope2_Seg02]
17 139.999741 -0.000060 -0.000119 2.790586 8.352161 5.619183 139.999756
18 139.999741 -0.000060 -0.000119 -2.449998 10.190277 -7.890706 139.999756
[Rope2_Seg03]
17 140.000107 0.000030 0.000000 2.628105 10.030549 7.801046 140.000107
18 140.000107 0.000030 0.000000 -2.420456 14.372371 -10.643456 140.000107
[Rope2_Seg04]
17 139.999802 0.000000 -0.000060 1.789597 10.752396 9.705027 139.999802
18 139.999802 0.000000 -0.000060 -1.562851 16.004410 -11.589904 139.999802
[Rope2_Seg05]
17 139.999985 -0.000060 0.000119 -0.596922 11.738864 -6.735650 139.999985
18 139.999985 -0.000060 0.000119 -0.052808 9.379712 -6.049713 139.999985
[Rope2_Seg06]
17 139.999893 -0.000030 -0.000119 0.883753 9.664319 -9.813196 139.999893
18 139.999893 -0.000030 -0.000119 0.118978 6.918539 -4.044956 139.999893
[Rope2_Seg07]
17 139.999893 0.000060 -0.000060 0.594366 6.309416 -4.533692 139.999893
18 139.999893 0.000060 -0.000060 0.487686 6.665213 -4.251240 139.999893
[Rope2_Seg09]
17 121.338966 0.000089 -0.000060 33.793236 -1.359788 -0.847141 121.338966
18 121.338966 0.000089 -0.000060 33.793236 -1.359788 -0.847141 121.338966
[R_mid_hand01]
17 104.680779 11.144459 -10.335981 -16.212063 45.237247 70.462852 105.778534
18 104.680779 11.144459 -10.335981 -16.212063 45.237247 70.462852 105.778534
[R_mid_hand02]
17 104.070427 2.443552 8.231699 49.067368 -67.749771 39.286453 104.424065
18 104.070427 2.443552 8.231699 49.067368 -67.749771 39.286453 104.424065
[R_mid_hand03]
17 106.028137 -11.221827 -5.996406 -177.101105 15.551026 -76.585571 106.788818
18 106.028137 -11.221827 -5.996406 -177.101105 15.551026 -76.585571 106.788818
[spine02]
17 129.756927 0.001550 0.000119 -1.023899 -3.926964 6.770991 129.756927
18 129.756927 0.001550 0.000119 -1.023899 -3.926965 6.770993 129.756927
[spine03]
17 78.614044 0.081741 -4.899001 1.040681 4.146420 4.212376 78.766579
18 78.614044 0.081741 -4.899000 1.040681 4.146420 4.212376 78.766579
[pelvis]
17 169.435242 0.051022 0.000000 0.019518 -0.190233 -10.721436 169.435257
18 169.435242 0.051022 0.000000 0.019518 -0.190233 -10.721436 169.435257
[null_rope03_connect]
17 -1.257226 -2.466202 137.391083 -14.311614 -61.372379 81.808372 137.418976
18 -1.257226 -2.466202 137.391083 -14.333542 -62.974564 81.915993 137.418976
[null_rope04_connect]
17 -1.259640 -2.480268 -137.844437 -14.311614 -61.372379 81.808372 137.872513
18 -1.259640 -2.480268 -137.844437 -14.333542 -62.974564 81.915993 137.872513
[Rope3_Seg01]
17 0.000000 0.000000 0.000000 25.298250 -31.722876 -89.949989 0.000000
18 0.000000 0.000000 0.000000 21.113287 -31.806187 -81.318092 0.000000
[Rope3_Seg02]
17 139.999924 -0.000119 0.000060 2.071056 -2.315286 15.892593 139.999924
18 139.999924 -0.000119 0.000060 0.842795 -1.617816 10.768803 139.999924
[Rope3_Seg03]
17 139.999924 -0.000119 0.000119 -0.712388 -0.978412 21.988634 139.999924
18 139.999924 -0.000119 0.000119 -0.551957 -0.951493 15.484487 139.999924
[Rope3_Seg04]
17 139.999924 0.000119 0.000000 -3.366783 2.049405 20.212612 139.999924
18 139.999924 0.000119 0.000000 -1.537345 5.285151 20.389458 139.999924
[Rope3_Seg05]
17 139.999924 -0.000238 0.000060 -10.610724 -9.788687 13.018976 139.999924
18 139.999924 -0.000238 0.000060 -12.323986 -16.642084 11.398091 139.999924
[Rope3_Seg06]
17 139.999893 -0.000119 -0.000060 -13.186863 -20.017372 8.462882 139.999893
18 139.999893 -0.000119 -0.000060 -6.245933 -27.249317 -1.556280 139.999893
[Rope3_Seg07]
17 139.999771 0.000060 -0.000119 -5.784668 -12.685402 4.238117 139.999771
18 139.999771 0.000060 -0.000119 -0.548437 -11.849265 0.078462 139.999771
[Rope3_Seg08]
17 139.999985 -0.000060 0.000000 -2.213483 -7.081533 1.838639 139.999985
18 139.999985 -0.000060 0.000000 0.439138 -6.040095 0.062687 139.999985
[Rope3_Seg09]
17 90.185997 -0.000179 -0.000060 89.793228 -1.359877 -0.847183 90.185997
18 90.185997 -0.000179 -0.000060 89.793228 -1.359877 -0.847183 90.185997
[R_rear_hand01]
17 103.366196 -6.073594 -10.757982 -177.714203 24.565960 -73.910950 104.101845
18 103.366196 -6.073594 -10.757982 -177.714203 24.565960 -73.910950 104.101845
[R_rear_hand02]
17 100.509819 12.039542 -7.992327 -12.874829 36.868488 72.167213 101.543350
18 100.509819 12.039542 -7.992327 -12.874829 36.868488 72.167213 101.543350
[R_rear_hand03]
17 101.539970 5.215704 5.435467 71.484581 -71.816628 21.513813 101.819031
18 101.539970 5.215704 5.435467 71.484581 -71.816628 21.513813 101.819031
[Rope4_Seg01]
17 0.000010 0.000024 -0.000097 -87.726456 -9.094902 -142.767929 0.000101
18 0.000010 0.000023 -0.000094 -86.596527 -11.796230 -141.800278 0.000097
[Rope4_Seg02]
17 139.999985 0.000060 0.000119 -8.581969 6.290201 14.117034 139.999985
18 139.999985 0.000060 0.000119 -7.350150 6.293167 13.483668 139.999985
[Rope4_Seg03]
17 139.999924 0.000000 -0.000238 -15.369837 3.015385 14.976918 139.999924
18 139.999924 0.000000 -0.000238 -17.068098 3.981796 17.620136 139.999924
[Rope4_Seg04]
17 139.999985 0.000000 0.000119 -18.395483 -1.224896 13.204829 139.999985
18 139.999985 0.000000 0.000119 -23.596262 -3.074794 17.096319 139.999985
[Rope4_Seg05]
17 139.999802 -0.000060 -0.000119 -28.128210 -1.795616 18.252687 139.999802
18 139.999802 -0.000060 -0.000119 -21.992529 1.734767 15.704852 139.999802
[Rope4_Seg06]
17 139.999924 0.000000 0.000060 -18.527102 -6.178079 11.034266 139.999924
18 139.999924 0.000000 0.000060 -20.251324 0.106040 11.911026 139.999924
[Rope4_Seg07]
17 139.999802 0.000000 0.000000 -6.901206 -4.736288 3.828624 139.999802
18 139.999802 0.000000 0.000000 -10.783367 -3.136249 5.164368 139.999802
[Rope4_Seg08]
17 139.999924 0.000000 0.000119 -4.881593 -2.949696 1.850718 139.999924
18 139.999924 0.000000 0.000119 -7.161562 -2.359473 2.588074 139.999924
[Rope4_Seg09]
17 90.185791 0.000060 0.000060 -135.617828 2.228885 0.850567 90.185791
18 90.185791 0.000060 0.000060 -135.617828 2.228885 0.850567 90.185791
[L_rear_hand01]
17 101.696655 -8.392275 -7.654577 -12.874829 -36.868488 107.832764 102.329041
18 101.696655 -8.392275 -7.654577 -12.874829 -36.868488 107.832764 102.329041
[L_rear_hand02]
17 102.726799 -1.568258 5.773216 71.484581 71.816628 158.486160 102.900848
18 102.726799 -1.568258 5.773216 71.484581 71.816628 158.486160 102.900848
[L_rear_hand03]
17 104.552910 9.721220 -10.420293 -177.714203 -24.565960 -106.089035 105.519653
18 104.552910 9.721220 -10.420293 -177.714203 -24.565960 -106.089035 105.519653
